<svg xmlns="http://www.w3.org/2000/svg" xmlns:xlink="http://www.w3.org/1999/xlink" width="102" height="102" viewBox="0 0 102 102">
  <defs>
    <linearGradient id="linear-gradient" x1="0.5" x2="0.5" y2="1" gradientUnits="objectBoundingBox">
      <stop offset="0" stop-color="#4b6cb7"/>
      <stop offset="1" stop-color="#182848"/>
    </linearGradient>
    <filter id="Path_94" x="33.803" y="14.685" width="34.062" height="62.072" filterUnits="userSpaceOnUse">
      <feOffset dy="3" input="SourceAlpha"/>
      <feGaussianBlur stdDeviation="2.5" result="blur"/>
      <feFlood flood-opacity="0.161"/>
      <feComposite operator="in" in2="blur"/>
      <feComposite in="SourceGraphic"/>
    </filter>
    <filter id="Path_95" x="39.105" y="46.647" width="26.608" height="32.175" filterUnits="userSpaceOnUse">
      <feOffset dy="3" input="SourceAlpha"/>
      <feGaussianBlur stdDeviation="2.5" result="blur-2"/>
      <feFlood flood-opacity="0.161"/>
      <feComposite operator="in" in2="blur-2"/>
      <feComposite in="SourceGraphic"/>
    </filter>
    <filter id="Path_96" x="33.602" y="22.21" width="24.062" height="32.947" filterUnits="userSpaceOnUse">
      <feOffset dy="3" input="SourceAlpha"/>
      <feGaussianBlur stdDeviation="2.5" result="blur-3"/>
      <feFlood flood-opacity="0.161"/>
      <feComposite operator="in" in2="blur-3"/>
      <feComposite in="SourceGraphic"/>
    </filter>
    <filter id="Path_97" x="47.751" y="15.802" width="20.296" height="35.168" filterUnits="userSpaceOnUse">
      <feOffset dy="3" input="SourceAlpha"/>
      <feGaussianBlur stdDeviation="2.5" result="blur-4"/>
      <feFlood flood-opacity="0.161"/>
      <feComposite operator="in" in2="blur-4"/>
      <feComposite in="SourceGraphic"/>
    </filter>
  </defs>
  <g id="Group_2427" data-name="Group 2427" transform="translate(-3929 -1250)">
    <circle id="Ellipse_47" data-name="Ellipse 47" cx="47" cy="47" r="47" transform="translate(3933 1254)" fill="url(#linear-gradient)"/>
    <g id="Group_2425" data-name="Group 2425">
      <g id="Group_2355" data-name="Group 2355" transform="translate(3970.102 1269.185)">
        <g id="Group_291" data-name="Group 291" transform="translate(0)">
          <g transform="matrix(1, 0, 0, 1, -41.1, -19.18)" filter="url(#Path_94)">
            <path id="Path_94-2" data-name="Path 94" d="M360.783,1813.712a3.967,3.967,0,0,1-1.166,1.574.682.682,0,0,1-.608.2l-.047-.013-.037-.012c-.3-.187-.232-.493-.249-.768a24.039,24.039,0,0,0-.4-3.207,3.264,3.264,0,0,0-.141-.513,1.231,1.231,0,0,0-1.831-.712,6,6,0,0,0-2.379,2.477c-1.685,2.708-3.19,5.512-4.6,8.366a23.713,23.713,0,0,0-1.6,3.716.545.545,0,0,1-.225.346.427.427,0,0,1-.156.052c-.3-.054-.608-.093-.906-.165a1.762,1.762,0,0,1-1.445-2.143,1.025,1.025,0,0,1,.033-.156c.12-.371.393-.773.322-1.1-.079-.361-.663-.255-.984-.481a2.308,2.308,0,0,1-.6-2.571,2.564,2.564,0,0,1,.256-.526c.13-.2.11-.29-.134-.381a1.235,1.235,0,0,1-.768-1.235,7.136,7.136,0,0,1,.34-2.568.627.627,0,0,0-.245-.819,1.711,1.711,0,0,1-.668-1.977c.633-2.418,1.344-4.814,2.085-7.2a2.656,2.656,0,0,1,.011-.742,13.5,13.5,0,0,1,.547-1.827,54.8,54.8,0,0,0,1.675-6.748,6.008,6.008,0,0,0,.057-1.163,1.268,1.268,0,0,1,.647-1.2c.813-.527,1.606-1.083,2.4-1.643a3.556,3.556,0,0,0,1.408-3.61,1.392,1.392,0,0,0-2.013-.954c-.523.242-1.035.506-1.554.756a.634.634,0,0,1-.445.1.383.383,0,0,1-.151-.09,1.379,1.379,0,0,1-.053-.256q-.111-4.176-.215-8.353h.1c.96-.01,1.92-.026,2.879-.025q4.716.007,9.431.026a.713.713,0,0,1,.151.181,1.39,1.39,0,0,1,0,.936c-.023.063-.045.127-.065.191s-.042.134-.061.2c-.164.581-.25,1.181-.416,1.764a15.8,15.8,0,0,1-1.73,4.28c-.466.732-.136,1.233.743,1.255.609.016.772.288.477.818a9.279,9.279,0,0,0-1.083,2.937,1.593,1.593,0,0,0,.493,1.6.748.748,0,0,1,.158,1.084c-.129.213-.252.431-.371.649a1.629,1.629,0,0,0-.094,1.762.71.71,0,0,1-.154.879,3.568,3.568,0,0,0-.88,1.507c-.208.912.06,1.292,1.015,1.387a.874.874,0,0,1,.324.06.286.286,0,0,1,.041.025c.035.023.071.047.106.072a1.05,1.05,0,0,1,.355.368,28.624,28.624,0,0,1,2.793,6.6A11.26,11.26,0,0,1,360.783,1813.712Z" transform="translate(-301.17 -1758.96)" fill="#2aaae0"/>
          </g>
          <g transform="matrix(1, 0, 0, 1, -41.1, -19.18)" filter="url(#Path_95)">
            <path id="Path_95-2" data-name="Path 95" d="M450.3,2454.561a1.383,1.383,0,0,1-.067.555.535.535,0,0,1-.128.176c-1.491.008-2.982.024-4.473.023-2.268,0-4.536-.013-6.8-.02h-.116q.077-1,.153-2c.013-.05.026-.1.04-.148a26.174,26.174,0,0,1,1.92-4.57,90.781,90.781,0,0,1,4.4-8.118,5.473,5.473,0,0,1,2.124-2.1,1.362,1.362,0,0,1,2.089.88,16.346,16.346,0,0,1,.5,3.616q.03.416.06.832h0a.427.427,0,0,1,.045.039.754.754,0,0,1,.147.582C450.229,2447.721,450.373,2451.14,450.3,2454.561Z" transform="translate(-392.11 -2386.99)" fill="#ec1c24"/>
          </g>
          <g transform="matrix(1, 0, 0, 1, -41.1, -19.18)" filter="url(#Path_96)">
            <path id="Path_96-2" data-name="Path 96" d="M342.96,1934.583c.666-.334,1.327-.678,2-1a1.555,1.555,0,0,1,2.224,1.085,3.643,3.643,0,0,1-1.428,3.826c-.8.609-1.644,1.162-2.478,1.727a.712.712,0,0,0-.342.688,18.891,18.891,0,0,1-.789,4.764c-.474,1.922-1.057,3.813-1.66,5.7-.387-1.245-.58-2.534-.858-3.8-.461-2.1-.957-4.2-1.322-6.319a4.612,4.612,0,0,1,1.81-4.839C341.026,1935.733,342.024,1935.209,342.96,1934.583Z" transform="translate(-297.11 -1906.71)" fill="#ec1c24"/>
          </g>
          <g transform="matrix(1, 0, 0, 1, -41.1, -19.18)" filter="url(#Path_97)">
            <path id="Path_97-2" data-name="Path 97" d="M625.333,1801.873a4.969,4.969,0,0,1,1.487,3.128,8.559,8.559,0,0,1-.506,2.858.737.737,0,0,0,.18.89c.025.024.044.054.068.079a3.037,3.037,0,0,1,.748,3.527,1.624,1.624,0,0,0,.107,1.567,2.034,2.034,0,0,1,.021,1.955,6.926,6.926,0,0,0-.53,2.405,4.305,4.305,0,0,1-2.72,3.643c-.061.029-.124.056-.186.084-1.294.185-1.842-.414-1.538-1.683a3.116,3.116,0,0,1,.974-1.567c.147-.136.239-.245.1-.433a1.777,1.777,0,0,1,.037-2.1,6.781,6.781,0,0,1,.363-.631c.207-.29.287-.463-.108-.727a1.663,1.663,0,0,1-.578-1.734,8.522,8.522,0,0,1,1.133-3.111c.067-.118.18-.216.171-.382-.22-.1-.43.044-.648.034-.819-.035-1.332-.735-.9-1.381C624.331,1806.343,624.718,1804.071,625.333,1801.873Z" transform="translate(-567.13 -1781.57)" fill="#ec1c24"/>
          </g>
        </g>
      </g>
      <text id="HOPE_UP" data-name="HOPE UP" transform="translate(3977 1329)" fill="#fff" font-size="9" font-family="Roboto-Black, Roboto" font-weight="800"><tspan x="-18.756" y="0">HOPE </tspan><tspan y="0" fill="#2dace3">UP</tspan></text>
    </g>
    <g id="Ellipse_48" data-name="Ellipse 48" transform="translate(3929 1250)" fill="none" stroke="#3b5796" stroke-width="3">
      <circle cx="51" cy="51" r="51" stroke="none"/>
      <circle cx="51" cy="51" r="49.5" fill="none"/>
    </g>
  </g>
</svg>
